<?xml version="1.0" encoding="utf-8"?>
<!-- Generator: Adobe Illustrator 27.6.1, SVG Export Plug-In . SVG Version: 6.00 Build 0)  -->
<svg version="1.1" id="Layer_1" xmlns="http://www.w3.org/2000/svg" xmlns:xlink="http://www.w3.org/1999/xlink" x="0px" y="0px"
	 viewBox="0 0 87.8 119.3" style="enable-background:new 0 0 87.8 119.3;" xml:space="preserve">
<style type="text/css">
	.st0{fill:url(#SVGID_1_);}
	.st1{fill:url(#SVGID_00000112607996978996648190000014475358882245040547_);}
	.st2{fill:url(#SVGID_00000024001682658976355420000005127186743611792315_);}
	.st3{fill:url(#SVGID_00000003798334567106937320000008523367929630313913_);}
	.st4{fill:url(#SVGID_00000040544307503948625860000005333342452319474340_);}
	.st5{opacity:0.3;fill:url(#SVGID_00000007415448853831534030000010470338295003474333_);enable-background:new    ;}
	.st6{opacity:0.9;fill:#F9A139;enable-background:new    ;}
	.st7{font-family:'Trebuchet-BoldItalic';}
	.st8{font-size:51.0895px;}
</style>
<linearGradient id="SVGID_1_" gradientUnits="userSpaceOnUse" x1="32.1617" y1="339.0284" x2="63.0803" y2="346.2562" gradientTransform="matrix(1 0 0 1 0 -278)">
	<stop  offset="0" style="stop-color:#FF6533"/>
	<stop  offset="0.157" style="stop-color:#FF5633"/>
	<stop  offset="0.434" style="stop-color:#FF4333"/>
	<stop  offset="0.714" style="stop-color:#FF3733"/>
	<stop  offset="1" style="stop-color:#FF3333"/>
</linearGradient>
<path class="st0" d="M87.7,37.7c0-6.7-1.8-13.1-4.9-18.5c-8.2-8.5-26.2-10.5-30.7,0c-4.6,10.7,7.7,22.6,13,21.6
	C72,39.6,64,23.9,64,23.9c10.4,19.7,8,13.6-10.8,31.7c-18.9,18-38.2,56.2-41,57.8c-0.1,0.1-0.2,0.1-0.4,0.2h74
	c1.3,0,2.1-1.4,1.6-2.5L68,72.8c-0.4-0.8-0.1-1.8,0.7-2.3C80.1,64,87.7,51.7,87.7,37.7L87.7,37.7z"/>
<linearGradient id="SVGID_00000080207870010590145330000001486483445366900411_" gradientUnits="userSpaceOnUse" x1="27.3216" y1="328.7819" x2="82.7342" y2="371.7466" gradientTransform="matrix(1 0 0 1 0 -278)">
	<stop  offset="0" style="stop-color:#BF3338"/>
	<stop  offset="1" style="stop-color:#FF3333"/>
</linearGradient>
<path style="fill:url(#SVGID_00000080207870010590145330000001486483445366900411_);" d="M87.7,37.7c0-6.7-1.8-13.1-4.9-18.5
	c-8.2-8.5-26.2-10.5-30.7,0c-4.6,10.7,7.7,22.6,13,21.6C72,39.6,64,23.9,64,23.9c10.4,19.7,8,13.6-10.8,31.7
	c-18.9,18-38.2,56.2-41,57.8c-0.1,0.1-0.2,0.1-0.4,0.2h74c1.3,0,2.1-1.4,1.6-2.5L68,72.8c-0.4-0.8-0.1-1.8,0.7-2.3
	C80.1,64,87.7,51.7,87.7,37.7L87.7,37.7z"/>
<linearGradient id="SVGID_00000002357146303933528820000014236476216005659578_" gradientUnits="userSpaceOnUse" x1="29.1354" y1="337.2379" x2="37.1662" y2="345.6702" gradientTransform="matrix(1 0 0 1 0 -278)">
	<stop  offset="0" style="stop-color:#FF6533"/>
	<stop  offset="0.157" style="stop-color:#FF5633"/>
	<stop  offset="0.434" style="stop-color:#FF4333"/>
	<stop  offset="0.714" style="stop-color:#FF3733"/>
	<stop  offset="1" style="stop-color:#FF3333"/>
</linearGradient>
<path style="fill:url(#SVGID_00000002357146303933528820000014236476216005659578_);" d="M12.2,113.4c2.8-1.6,22.1-39.7,41-57.8
	C72,37.5,74.4,43.5,64,23.9c0,0-39.9,56-54.4,83.7"/>
<linearGradient id="SVGID_00000005959146658463065490000012598592949357230217_" gradientUnits="userSpaceOnUse" x1="43.7422" y1="351.7537" x2="41.333" y2="317.2213" gradientTransform="matrix(1 0 0 1 0 -278)">
	<stop  offset="0" style="stop-color:#FF6533"/>
	<stop  offset="0.157" style="stop-color:#FF5633"/>
	<stop  offset="0.434" style="stop-color:#FF4333"/>
	<stop  offset="0.714" style="stop-color:#FF3733"/>
	<stop  offset="1" style="stop-color:#FF3333"/>
</linearGradient>
<path style="fill:url(#SVGID_00000005959146658463065490000012598592949357230217_);" d="M17.8,63.2c27-49.6,30.5-54.6,44.6-54.6
	c7.4,0,14.8,3.3,19.7,9.3C75.5,7.3,63.9,0.2,50.5,0H4.7C3.8,0,3,0.8,3,1.7v92.4C5.7,87.1,10.3,77,17.8,63.2L17.8,63.2z"/>
<linearGradient id="SVGID_00000091714978385007473370000014683139243479510973_" gradientUnits="userSpaceOnUse" x1="33.3008" y1="336.6433" x2="44.7081" y2="344.4004" gradientTransform="matrix(1 0 0 1 0 -278)">
	<stop  offset="0" style="stop-color:#FBB040"/>
	<stop  offset="1" style="stop-color:#FB8840"/>
</linearGradient>
<path style="fill:url(#SVGID_00000091714978385007473370000014683139243479510973_);" d="M53.2,55.6c-18.9,18.1-38.2,56.2-41,57.8
	c-2.8,1.6-7.5,1.8-10-1c-2.7-3-6.8-7.8,15.7-49.2c27-49.6,30.5-54.6,44.6-54.6c7.4,0,14.8,3.3,19.7,9.3c0.3,0.4,0.5,0.9,0.8,1.3
	c-8.2-8.5-26.2-10.5-30.7,0c-4.6,10.7,7.7,22.6,13,21.6c6.8-1.2-1.2-16.9-1.2-16.9C74.4,43.5,72,37.5,53.2,55.6L53.2,55.6z"/>
<linearGradient id="SVGID_00000020385647994599170290000013440520503944533432_" gradientUnits="userSpaceOnUse" x1="44.9865" y1="292.7886" x2="33.3418" y2="420.8797" gradientTransform="matrix(1 0 0 1 0 -278)">
	<stop  offset="0" style="stop-color:#FFFFFF"/>
	<stop  offset="1" style="stop-color:#FFFFFF;stop-opacity:0"/>
</linearGradient>
<path style="opacity:0.3;fill:url(#SVGID_00000020385647994599170290000013440520503944533432_);enable-background:new    ;" d="
	M20,65.4c27-49.6,30.5-54.6,44.6-54.6c6.1,0,12.2,2.3,16.9,6.4c-4.8-5.5-12-8.6-19.1-8.6c-14.1,0-17.6,5-44.6,54.6
	c-22.5,41.4-18.3,46.2-15.7,49.2c0.4,0.4,0.8,0.8,1.3,1.1C1.1,110.1,0,102.2,20,65.4z"/>
<text transform="matrix(1.1296 0 0 1 58.8824 105.0625)" class="st6 st7 st8">S</text>
</svg>
